<svg width="48" height="48" viewBox="0 0 48 48" fill="none" xmlns="http://www.w3.org/2000/svg">
  <rect width="48" height="48" rx="14" fill="#0B1220"/>
  <path d="M13 31V17h6.8c2.2 0 3.8.4 4.9 1.2 1.1.8 1.6 2 1.6 3.5 0 1-.3 1.9-1 2.6-.6.7-1.5 1.2-2.6 1.4v.2c1.4.2 2.4.7 3.2 1.5.7.8 1.1 1.8 1.1 3 0 1.7-.6 3-1.8 4-1.2 1-2.9 1.5-5 1.5H13Zm4-8.6h2.4c1 0 1.8-.2 2.4-.6.6-.4.8-1 .8-1.8 0-.7-.3-1.3-.8-1.7-.5-.4-1.3-.6-2.3-.6H17v4.7Zm0 6h3.1c1.1 0 1.9-.2 2.5-.6.6-.4.8-1 .8-1.8 0-.8-.3-1.4-.9-1.8-.6-.4-1.4-.6-2.6-.6H17v4.8Z" fill="#F3F1EA"/>
  <path d="M32 17h3v14h-3z" fill="#E8A33D"/>
</svg>
